<?xml version="1.0" encoding="UTF-8"?>
<?xml-stylesheet href="https://cdnjs.cloudflare.com/ajax/libs/font-awesome/6.7.2/css/all.min.css" type="text/css"?>
<svg aria-roledescription="flowchart-v2" role="graphics-document document" viewBox="0 0 711.1015625 2118" style="max-width: 100%;" class="flowchart" xmlns="http://www.w3.org/2000/svg" width="100%" id="graph-div" height="100%" xmlns:xlink="http://www.w3.org/1999/xlink"><style>#graph-div{font-family:"trebuchet ms",verdana,arial,sans-serif;font-size:16px;fill:#ccc;}#graph-div .error-icon{fill:#a44141;}#graph-div .error-text{fill:#ddd;stroke:#ddd;}#graph-div .edge-thickness-normal{stroke-width:1px;}#graph-div .edge-thickness-thick{stroke-width:3.5px;}#graph-div .edge-pattern-solid{stroke-dasharray:0;}#graph-div .edge-thickness-invisible{stroke-width:0;fill:none;}#graph-div .edge-pattern-dashed{stroke-dasharray:3;}#graph-div .edge-pattern-dotted{stroke-dasharray:2;}#graph-div .marker{fill:lightgrey;stroke:lightgrey;}#graph-div .marker.cross{stroke:lightgrey;}#graph-div svg{font-family:"trebuchet ms",verdana,arial,sans-serif;font-size:16px;}#graph-div p{margin:0;}#graph-div .label{font-family:"trebuchet ms",verdana,arial,sans-serif;color:#ccc;}#graph-div .cluster-label text{fill:#F9FFFE;}#graph-div .cluster-label span{color:#F9FFFE;}#graph-div .cluster-label span p{background-color:transparent;}#graph-div .label text,#graph-div span{fill:#ccc;color:#ccc;}#graph-div .node rect,#graph-div .node circle,#graph-div .node ellipse,#graph-div .node polygon,#graph-div .node path{fill:#1f2020;stroke:#ccc;stroke-width:1px;}#graph-div .rough-node .label text,#graph-div .node .label text,#graph-div .image-shape .label,#graph-div .icon-shape .label{text-anchor:middle;}#graph-div .node .katex path{fill:#000;stroke:#000;stroke-width:1px;}#graph-div .rough-node .label,#graph-div .node .label,#graph-div .image-shape .label,#graph-div .icon-shape .label{text-align:center;}#graph-div .node.clickable{cursor:pointer;}#graph-div .root .anchor path{fill:lightgrey!important;stroke-width:0;stroke:lightgrey;}#graph-div .arrowheadPath{fill:lightgrey;}#graph-div .edgePath .path{stroke:lightgrey;stroke-width:2.0px;}#graph-div .flowchart-link{stroke:lightgrey;fill:none;}#graph-div .edgeLabel{background-color:hsl(0, 0%, 34.4117647059%);text-align:center;}#graph-div .edgeLabel p{background-color:hsl(0, 0%, 34.4117647059%);}#graph-div .edgeLabel rect{opacity:0.5;background-color:hsl(0, 0%, 34.4117647059%);fill:hsl(0, 0%, 34.4117647059%);}#graph-div .labelBkg{background-color:rgba(87.75, 87.75, 87.75, 0.5);}#graph-div .cluster rect{fill:hsl(180, 1.5873015873%, 28.3529411765%);stroke:rgba(255, 255, 255, 0.25);stroke-width:1px;}#graph-div .cluster text{fill:#F9FFFE;}#graph-div .cluster span{color:#F9FFFE;}#graph-div div.mermaidTooltip{position:absolute;text-align:center;max-width:200px;padding:2px;font-family:"trebuchet ms",verdana,arial,sans-serif;font-size:12px;background:hsl(20, 1.5873015873%, 12.3529411765%);border:1px solid rgba(255, 255, 255, 0.25);border-radius:2px;pointer-events:none;z-index:100;}#graph-div .flowchartTitleText{text-anchor:middle;font-size:18px;fill:#ccc;}#graph-div rect.text{fill:none;stroke-width:0;}#graph-div .icon-shape,#graph-div .image-shape{background-color:hsl(0, 0%, 34.4117647059%);text-align:center;}#graph-div .icon-shape p,#graph-div .image-shape p{background-color:hsl(0, 0%, 34.4117647059%);padding:2px;}#graph-div .icon-shape rect,#graph-div .image-shape rect{opacity:0.5;background-color:hsl(0, 0%, 34.4117647059%);fill:hsl(0, 0%, 34.4117647059%);}#graph-div :root{--mermaid-font-family:"trebuchet ms",verdana,arial,sans-serif;}</style><g><marker orient="auto" markerHeight="8" markerWidth="8" markerUnits="userSpaceOnUse" refY="5" refX="5" viewBox="0 0 10 10" class="marker flowchart-v2" id="graph-div_flowchart-v2-pointEnd"><path style="stroke-width: 1; stroke-dasharray: 1, 0;" class="arrowMarkerPath" d="M 0 0 L 10 5 L 0 10 z"></path></marker><marker orient="auto" markerHeight="8" markerWidth="8" markerUnits="userSpaceOnUse" refY="5" refX="4.5" viewBox="0 0 10 10" class="marker flowchart-v2" id="graph-div_flowchart-v2-pointStart"><path style="stroke-width: 1; stroke-dasharray: 1, 0;" class="arrowMarkerPath" d="M 0 5 L 10 10 L 10 0 z"></path></marker><marker orient="auto" markerHeight="11" markerWidth="11" markerUnits="userSpaceOnUse" refY="5" refX="11" viewBox="0 0 10 10" class="marker flowchart-v2" id="graph-div_flowchart-v2-circleEnd"><circle style="stroke-width: 1; stroke-dasharray: 1, 0;" class="arrowMarkerPath" r="5" cy="5" cx="5"></circle></marker><marker orient="auto" markerHeight="11" markerWidth="11" markerUnits="userSpaceOnUse" refY="5" refX="-1" viewBox="0 0 10 10" class="marker flowchart-v2" id="graph-div_flowchart-v2-circleStart"><circle style="stroke-width: 1; stroke-dasharray: 1, 0;" class="arrowMarkerPath" r="5" cy="5" cx="5"></circle></marker><marker orient="auto" markerHeight="11" markerWidth="11" markerUnits="userSpaceOnUse" refY="5.2" refX="12" viewBox="0 0 11 11" class="marker cross flowchart-v2" id="graph-div_flowchart-v2-crossEnd"><path style="stroke-width: 2; stroke-dasharray: 1, 0;" class="arrowMarkerPath" d="M 1,1 l 9,9 M 10,1 l -9,9"></path></marker><marker orient="auto" markerHeight="11" markerWidth="11" markerUnits="userSpaceOnUse" refY="5.2" refX="-1" viewBox="0 0 11 11" class="marker cross flowchart-v2" id="graph-div_flowchart-v2-crossStart"><path style="stroke-width: 2; stroke-dasharray: 1, 0;" class="arrowMarkerPath" d="M 1,1 l 9,9 M 10,1 l -9,9"></path></marker><g class="root"><g class="clusters"></g><g class="edgePaths"><path marker-end="url(#graph-div_flowchart-v2-pointEnd)" style="" class="edge-thickness-normal edge-pattern-solid edge-thickness-normal edge-pattern-solid flowchart-link" id="L_A_B_0" d="M334.102,62L334.102,66.167C334.102,70.333,334.102,78.667,334.102,86.333C334.102,94,334.102,101,334.102,104.5L334.102,108"></path><path marker-end="url(#graph-div_flowchart-v2-pointEnd)" style="" class="edge-thickness-normal edge-pattern-solid edge-thickness-normal edge-pattern-solid flowchart-link" id="L_B_C_1" d="M334.102,166L334.102,170.167C334.102,174.333,334.102,182.667,334.172,190.417C334.242,198.167,334.383,205.334,334.453,208.917L334.523,212.501"></path><path marker-end="url(#graph-div_flowchart-v2-pointEnd)" style="" class="edge-thickness-normal edge-pattern-solid edge-thickness-normal edge-pattern-solid flowchart-link" id="L_C_D_2" d="M379.294,337.808L395.095,351.34C410.896,364.872,442.499,391.936,458.3,410.968C474.102,430,474.102,441,474.102,446.5L474.102,452"></path><path marker-end="url(#graph-div_flowchart-v2-pointEnd)" style="" class="edge-thickness-normal edge-pattern-solid edge-thickness-normal edge-pattern-solid flowchart-link" id="L_D_E_3" d="M474.102,510L474.102,514.167C474.102,518.333,474.102,526.667,474.102,534.333C474.102,542,474.102,549,474.102,552.5L474.102,556"></path><path marker-end="url(#graph-div_flowchart-v2-pointEnd)" style="" class="edge-thickness-normal edge-pattern-solid edge-thickness-normal edge-pattern-solid flowchart-link" id="L_E_F_4" d="M533.294,614L542.428,618.167C551.563,622.333,569.832,630.667,578.967,638.333C588.102,646,588.102,653,588.102,656.5L588.102,660"></path><path marker-end="url(#graph-div_flowchart-v2-pointEnd)" style="" class="edge-thickness-normal edge-pattern-solid edge-thickness-normal edge-pattern-solid flowchart-link" id="L_F_G_5" d="M588.102,742L588.102,746.167C588.102,750.333,588.102,758.667,588.102,766.333C588.102,774,588.102,781,588.102,784.5L588.102,788"></path><path marker-end="url(#graph-div_flowchart-v2-pointEnd)" style="" class="edge-thickness-normal edge-pattern-solid edge-thickness-normal edge-pattern-solid flowchart-link" id="L_E_H_6" d="M414.909,614L405.775,618.167C396.64,622.333,378.371,630.667,369.236,640.333C360.102,650,360.102,661,360.102,666.5L360.102,672"></path><path marker-end="url(#graph-div_flowchart-v2-pointEnd)" style="" class="edge-thickness-normal edge-pattern-solid edge-thickness-normal edge-pattern-solid flowchart-link" id="L_H_I_7" d="M360.102,730L360.102,736.167C360.102,742.333,360.102,754.667,360.102,764.333C360.102,774,360.102,781,360.102,784.5L360.102,788"></path><path marker-end="url(#graph-div_flowchart-v2-pointEnd)" style="" class="edge-thickness-normal edge-pattern-solid edge-thickness-normal edge-pattern-solid flowchart-link" id="L_I_J_8" d="M360.102,846L360.102,850.167C360.102,854.333,360.102,862.667,370.505,872.674C380.908,882.681,401.714,894.361,412.117,900.202L422.52,906.042"></path><path marker-end="url(#graph-div_flowchart-v2-pointEnd)" style="" class="edge-thickness-normal edge-pattern-solid edge-thickness-normal edge-pattern-solid flowchart-link" id="L_G_J_9" d="M588.102,846L588.102,850.167C588.102,854.333,588.102,862.667,577.699,872.674C567.295,882.681,546.489,894.361,536.086,900.202L525.683,906.042"></path><path marker-end="url(#graph-div_flowchart-v2-pointEnd)" style="" class="edge-thickness-normal edge-pattern-solid edge-thickness-normal edge-pattern-solid flowchart-link" id="L_J_K_10" d="M474.102,962L474.102,968.167C474.102,974.333,474.102,986.667,474.102,996.333C474.102,1006,474.102,1013,474.102,1016.5L474.102,1020"></path><path marker-end="url(#graph-div_flowchart-v2-pointEnd)" style="" class="edge-thickness-normal edge-pattern-solid edge-thickness-normal edge-pattern-solid flowchart-link" id="L_K_L_11" d="M474.102,1102L474.102,1106.167C474.102,1110.333,474.102,1118.667,474.102,1126.333C474.102,1134,474.102,1141,474.102,1144.5L474.102,1148"></path><path marker-end="url(#graph-div_flowchart-v2-pointEnd)" style="" class="edge-thickness-normal edge-pattern-solid edge-thickness-normal edge-pattern-solid flowchart-link" id="L_C_M_12" d="M281.683,329.581L255.236,344.485C228.789,359.388,175.894,389.194,149.447,414.764C123,440.333,123,461.667,123,481C123,500.333,123,517.667,123,535C123,552.333,123,569.667,123,587C123,604.333,123,621.667,123,641C123,660.333,123,681.667,123,703C123,724.333,123,745.667,123,759.833C123,774,123,781,123,784.5L123,788"></path><path marker-end="url(#graph-div_flowchart-v2-pointEnd)" style="" class="edge-thickness-normal edge-pattern-solid edge-thickness-normal edge-pattern-solid flowchart-link" id="L_M_N_13" d="M123,846L123,850.167C123,854.333,123,862.667,123,870.333C123,878,123,885,123,888.5L123,892"></path><path marker-end="url(#graph-div_flowchart-v2-pointEnd)" style="" class="edge-thickness-normal edge-pattern-solid edge-thickness-normal edge-pattern-solid flowchart-link" id="L_N_O_14" d="M123,974L123,978.167C123,982.333,123,990.667,123,998.333C123,1006,123,1013,123,1016.5L123,1020"></path><path marker-end="url(#graph-div_flowchart-v2-pointEnd)" style="" class="edge-thickness-normal edge-pattern-solid edge-thickness-normal edge-pattern-solid flowchart-link" id="L_O_P_15" d="M123,1102L123,1106.167C123,1110.333,123,1118.667,123,1126.333C123,1134,123,1141,123,1144.5L123,1148"></path><path marker-end="url(#graph-div_flowchart-v2-pointEnd)" style="" class="edge-thickness-normal edge-pattern-solid edge-thickness-normal edge-pattern-solid flowchart-link" id="L_P_Q_16" d="M123,1230L123,1234.167C123,1238.333,123,1246.667,143.132,1255.792C163.264,1264.918,203.527,1274.836,223.659,1279.795L243.791,1284.754"></path><path marker-end="url(#graph-div_flowchart-v2-pointEnd)" style="" class="edge-thickness-normal edge-pattern-solid edge-thickness-normal edge-pattern-solid flowchart-link" id="L_L_Q_17" d="M474.102,1230L474.102,1234.167C474.102,1238.333,474.102,1246.667,463.509,1254.768C452.916,1262.869,431.73,1270.738,421.137,1274.673L410.544,1278.607"></path><path marker-end="url(#graph-div_flowchart-v2-pointEnd)" style="" class="edge-thickness-normal edge-pattern-solid edge-thickness-normal edge-pattern-solid flowchart-link" id="L_Q_R_18" d="M334.102,1334L334.102,1338.167C334.102,1342.333,334.102,1350.667,334.102,1358.333C334.102,1366,334.102,1373,334.102,1376.5L334.102,1380"></path><path marker-end="url(#graph-div_flowchart-v2-pointEnd)" style="" class="edge-thickness-normal edge-pattern-solid edge-thickness-normal edge-pattern-solid flowchart-link" id="L_R_S_19" d="M334.102,1438L334.102,1442.167C334.102,1446.333,334.102,1454.667,334.102,1462.333C334.102,1470,334.102,1477,334.102,1480.5L334.102,1484"></path><path marker-end="url(#graph-div_flowchart-v2-pointEnd)" style="" class="edge-thickness-normal edge-pattern-solid edge-thickness-normal edge-pattern-solid flowchart-link" id="L_S_T_20" d="M334.102,1566L334.102,1570.167C334.102,1574.333,334.102,1582.667,334.102,1590.333C334.102,1598,334.102,1605,334.102,1608.5L334.102,1612"></path><path marker-end="url(#graph-div_flowchart-v2-pointEnd)" style="" class="edge-thickness-normal edge-pattern-solid edge-thickness-normal edge-pattern-solid flowchart-link" id="L_T_U_21" d="M334.102,1670L334.102,1674.167C334.102,1678.333,334.102,1686.667,334.102,1694.333C334.102,1702,334.102,1709,334.102,1712.5L334.102,1716"></path><path marker-end="url(#graph-div_flowchart-v2-pointEnd)" style="" class="edge-thickness-normal edge-pattern-solid edge-thickness-normal edge-pattern-solid flowchart-link" id="L_U_V_22" d="M334.102,1774L334.102,1778.167C334.102,1782.333,334.102,1790.667,334.102,1798.333C334.102,1806,334.102,1813,334.102,1816.5L334.102,1820"></path><path marker-end="url(#graph-div_flowchart-v2-pointEnd)" style="" class="edge-thickness-normal edge-pattern-solid edge-thickness-normal edge-pattern-solid flowchart-link" id="L_V_W_23" d="M334.102,1902L334.102,1906.167C334.102,1910.333,334.102,1918.667,334.102,1926.333C334.102,1934,334.102,1941,334.102,1944.5L334.102,1948"></path><path marker-end="url(#graph-div_flowchart-v2-pointEnd)" style="" class="edge-thickness-normal edge-pattern-solid edge-thickness-normal edge-pattern-solid flowchart-link" id="L_W_X_24" d="M334.102,2006L334.102,2010.167C334.102,2014.333,334.102,2022.667,334.102,2030.333C334.102,2038,334.102,2045,334.102,2048.5L334.102,2052"></path></g><g class="edgeLabels"><g class="edgeLabel"><g transform="translate(0, 0)" class="label"><foreignObject height="0" width="0"><div style="display: table-cell; white-space: nowrap; line-height: 1.5; max-width: 200px; text-align: center;" class="labelBkg" xmlns="http://www.w3.org/1999/xhtml"><span class="edgeLabel"></span></div></foreignObject></g></g><g class="edgeLabel"><g transform="translate(0, 0)" class="label"><foreignObject height="0" width="0"><div style="display: table-cell; white-space: nowrap; line-height: 1.5; max-width: 200px; text-align: center;" class="labelBkg" xmlns="http://www.w3.org/1999/xhtml"><span class="edgeLabel"></span></div></foreignObject></g></g><g transform="translate(474.1015625, 419)" class="edgeLabel"><g transform="translate(-8, -12)" class="label"><foreignObject height="24" width="16"><div style="display: table-cell; white-space: nowrap; line-height: 1.5; max-width: 200px; text-align: center;" class="labelBkg" xmlns="http://www.w3.org/1999/xhtml"><span class="edgeLabel"><p>是</p></span></div></foreignObject></g></g><g class="edgeLabel"><g transform="translate(0, 0)" class="label"><foreignObject height="0" width="0"><div style="display: table-cell; white-space: nowrap; line-height: 1.5; max-width: 200px; text-align: center;" class="labelBkg" xmlns="http://www.w3.org/1999/xhtml"><span class="edgeLabel"></span></div></foreignObject></g></g><g class="edgeLabel"><g transform="translate(0, 0)" class="label"><foreignObject height="0" width="0"><div style="display: table-cell; white-space: nowrap; line-height: 1.5; max-width: 200px; text-align: center;" class="labelBkg" xmlns="http://www.w3.org/1999/xhtml"><span class="edgeLabel"></span></div></foreignObject></g></g><g class="edgeLabel"><g transform="translate(0, 0)" class="label"><foreignObject height="0" width="0"><div style="display: table-cell; white-space: nowrap; line-height: 1.5; max-width: 200px; text-align: center;" class="labelBkg" xmlns="http://www.w3.org/1999/xhtml"><span class="edgeLabel"></span></div></foreignObject></g></g><g class="edgeLabel"><g transform="translate(0, 0)" class="label"><foreignObject height="0" width="0"><div style="display: table-cell; white-space: nowrap; line-height: 1.5; max-width: 200px; text-align: center;" class="labelBkg" xmlns="http://www.w3.org/1999/xhtml"><span class="edgeLabel"></span></div></foreignObject></g></g><g class="edgeLabel"><g transform="translate(0, 0)" class="label"><foreignObject height="0" width="0"><div style="display: table-cell; white-space: nowrap; line-height: 1.5; max-width: 200px; text-align: center;" class="labelBkg" xmlns="http://www.w3.org/1999/xhtml"><span class="edgeLabel"></span></div></foreignObject></g></g><g class="edgeLabel"><g transform="translate(0, 0)" class="label"><foreignObject height="0" width="0"><div style="display: table-cell; white-space: nowrap; line-height: 1.5; max-width: 200px; text-align: center;" class="labelBkg" xmlns="http://www.w3.org/1999/xhtml"><span class="edgeLabel"></span></div></foreignObject></g></g><g class="edgeLabel"><g transform="translate(0, 0)" class="label"><foreignObject height="0" width="0"><div style="display: table-cell; white-space: nowrap; line-height: 1.5; max-width: 200px; text-align: center;" class="labelBkg" xmlns="http://www.w3.org/1999/xhtml"><span class="edgeLabel"></span></div></foreignObject></g></g><g class="edgeLabel"><g transform="translate(0, 0)" class="label"><foreignObject height="0" width="0"><div style="display: table-cell; white-space: nowrap; line-height: 1.5; max-width: 200px; text-align: center;" class="labelBkg" xmlns="http://www.w3.org/1999/xhtml"><span class="edgeLabel"></span></div></foreignObject></g></g><g class="edgeLabel"><g transform="translate(0, 0)" class="label"><foreignObject height="0" width="0"><div style="display: table-cell; white-space: nowrap; line-height: 1.5; max-width: 200px; text-align: center;" class="labelBkg" xmlns="http://www.w3.org/1999/xhtml"><span class="edgeLabel"></span></div></foreignObject></g></g><g transform="translate(123, 587)" class="edgeLabel"><g transform="translate(-8, -12)" class="label"><foreignObject height="24" width="16"><div style="display: table-cell; white-space: nowrap; line-height: 1.5; max-width: 200px; text-align: center;" class="labelBkg" xmlns="http://www.w3.org/1999/xhtml"><span class="edgeLabel"><p>否</p></span></div></foreignObject></g></g><g class="edgeLabel"><g transform="translate(0, 0)" class="label"><foreignObject height="0" width="0"><div style="display: table-cell; white-space: nowrap; line-height: 1.5; max-width: 200px; text-align: center;" class="labelBkg" xmlns="http://www.w3.org/1999/xhtml"><span class="edgeLabel"></span></div></foreignObject></g></g><g class="edgeLabel"><g transform="translate(0, 0)" class="label"><foreignObject height="0" width="0"><div style="display: table-cell; white-space: nowrap; line-height: 1.5; max-width: 200px; text-align: center;" class="labelBkg" xmlns="http://www.w3.org/1999/xhtml"><span class="edgeLabel"></span></div></foreignObject></g></g><g class="edgeLabel"><g transform="translate(0, 0)" class="label"><foreignObject height="0" width="0"><div style="display: table-cell; white-space: nowrap; line-height: 1.5; max-width: 200px; text-align: center;" class="labelBkg" xmlns="http://www.w3.org/1999/xhtml"><span class="edgeLabel"></span></div></foreignObject></g></g><g class="edgeLabel"><g transform="translate(0, 0)" class="label"><foreignObject height="0" width="0"><div style="display: table-cell; white-space: nowrap; line-height: 1.5; max-width: 200px; text-align: center;" class="labelBkg" xmlns="http://www.w3.org/1999/xhtml"><span class="edgeLabel"></span></div></foreignObject></g></g><g class="edgeLabel"><g transform="translate(0, 0)" class="label"><foreignObject height="0" width="0"><div style="display: table-cell; white-space: nowrap; line-height: 1.5; max-width: 200px; text-align: center;" class="labelBkg" xmlns="http://www.w3.org/1999/xhtml"><span class="edgeLabel"></span></div></foreignObject></g></g><g class="edgeLabel"><g transform="translate(0, 0)" class="label"><foreignObject height="0" width="0"><div style="display: table-cell; white-space: nowrap; line-height: 1.5; max-width: 200px; text-align: center;" class="labelBkg" xmlns="http://www.w3.org/1999/xhtml"><span class="edgeLabel"></span></div></foreignObject></g></g><g class="edgeLabel"><g transform="translate(0, 0)" class="label"><foreignObject height="0" width="0"><div style="display: table-cell; white-space: nowrap; line-height: 1.5; max-width: 200px; text-align: center;" class="labelBkg" xmlns="http://www.w3.org/1999/xhtml"><span class="edgeLabel"></span></div></foreignObject></g></g><g class="edgeLabel"><g transform="translate(0, 0)" class="label"><foreignObject height="0" width="0"><div style="display: table-cell; white-space: nowrap; line-height: 1.5; max-width: 200px; text-align: center;" class="labelBkg" xmlns="http://www.w3.org/1999/xhtml"><span class="edgeLabel"></span></div></foreignObject></g></g><g class="edgeLabel"><g transform="translate(0, 0)" class="label"><foreignObject height="0" width="0"><div style="display: table-cell; white-space: nowrap; line-height: 1.5; max-width: 200px; text-align: center;" class="labelBkg" xmlns="http://www.w3.org/1999/xhtml"><span class="edgeLabel"></span></div></foreignObject></g></g><g class="edgeLabel"><g transform="translate(0, 0)" class="label"><foreignObject height="0" width="0"><div style="display: table-cell; white-space: nowrap; line-height: 1.5; max-width: 200px; text-align: center;" class="labelBkg" xmlns="http://www.w3.org/1999/xhtml"><span class="edgeLabel"></span></div></foreignObject></g></g><g class="edgeLabel"><g transform="translate(0, 0)" class="label"><foreignObject height="0" width="0"><div style="display: table-cell; white-space: nowrap; line-height: 1.5; max-width: 200px; text-align: center;" class="labelBkg" xmlns="http://www.w3.org/1999/xhtml"><span class="edgeLabel"></span></div></foreignObject></g></g><g class="edgeLabel"><g transform="translate(0, 0)" class="label"><foreignObject height="0" width="0"><div style="display: table-cell; white-space: nowrap; line-height: 1.5; max-width: 200px; text-align: center;" class="labelBkg" xmlns="http://www.w3.org/1999/xhtml"><span class="edgeLabel"></span></div></foreignObject></g></g></g><g class="nodes"><g transform="translate(334.1015625, 35)" id="flowchart-A-15767" class="node default"><rect height="54" width="144.75" y="-27" x="-72.375" ry="5" rx="5" style="" class="basic label-container"></rect><g transform="translate(-57.375, -12)" style="" class="label"><rect></rect><foreignObject height="24" width="114.75"><div style="display: table-cell; white-space: nowrap; line-height: 1.5; max-width: 200px; text-align: center;" xmlns="http://www.w3.org/1999/xhtml"><span class="nodeLabel"><p>加载 index.html</p></span></div></foreignObject></g></g><g transform="translate(334.1015625, 139)" id="flowchart-B-15768" class="node default"><rect height="54" width="205.92709350585938" y="-27" x="-102.96354675292969" ry="5" rx="5" style="" class="basic label-container"></rect><g transform="translate(-87.96354675292969, -12)" style="" class="label"><rect></rect><foreignObject height="24" width="175.92709350585938"><div style="display: table-cell; white-space: nowrap; line-height: 1.5; max-width: 200px; text-align: center;" xmlns="http://www.w3.org/1999/xhtml"><span class="nodeLabel"><p>加载 2.x 样板的第三方库</p></span></div></foreignObject></g></g><g transform="translate(334.1015625, 299)" id="flowchart-C-15770" class="node default"><polygon transform="translate(-83,83)" class="label-container" points="83,0 166,-83 83,-166 0,-83"></polygon><g transform="translate(-56, -12)" style="" class="label"><rect></rect><foreignObject height="24" width="112"><div style="display: table-cell; white-space: nowrap; line-height: 1.5; max-width: 200px; text-align: center;" xmlns="http://www.w3.org/1999/xhtml"><span class="nodeLabel"><p>是否在游戏中？</p></span></div></foreignObject></g></g><g transform="translate(474.1015625, 483)" id="flowchart-D-15772" class="node default"><rect height="54" width="142" y="-27" x="-71" ry="5" rx="5" style="" class="basic label-container"></rect><g transform="translate(-56, -12)" style="" class="label"><rect></rect><foreignObject height="24" width="112"><div style="display: table-cell; white-space: nowrap; line-height: 1.5; max-width: 200px; text-align: center;" xmlns="http://www.w3.org/1999/xhtml"><span class="nodeLabel"><p>加载渲染端入口</p></span></div></foreignObject></g></g><g transform="translate(474.1015625, 587)" id="flowchart-E-15774" class="node default"><rect height="54" width="142" y="-27" x="-71" ry="5" rx="5" style="" class="basic label-container"></rect><g transform="translate(-56, -12)" style="" class="label"><rect></rect><foreignObject height="24" width="112"><div style="display: table-cell; white-space: nowrap; line-height: 1.5; max-width: 200px; text-align: center;" xmlns="http://www.w3.org/1999/xhtml"><span class="nodeLabel"><p>加载数据端入口</p></span></div></foreignObject></g></g><g transform="translate(588.1015625, 703)" id="flowchart-F-15776" class="node default"><rect height="78" width="230" y="-39" x="-115" ry="5" rx="5" style="" class="basic label-container"></rect><g transform="translate(-100, -24)" style="" class="label"><rect></rect><foreignObject height="48" width="200"><div style="display: table; white-space: break-spaces; line-height: 1.5; max-width: 200px; text-align: center; width: 200px;" xmlns="http://www.w3.org/1999/xhtml"><span class="nodeLabel"><p>初始化数据端，写入 Mota 全局变量</p></span></div></foreignObject></g></g><g transform="translate(588.1015625, 819)" id="flowchart-G-15777" class="node default"><rect height="54" width="137.46875" y="-27" x="-68.734375" ry="5" rx="5" style="" class="basic label-container"></rect><g transform="translate(-53.734375, -12)" style="" class="label"><rect></rect><foreignObject height="24" width="107.46875"><div style="display: table-cell; white-space: nowrap; line-height: 1.5; max-width: 200px; text-align: center;" xmlns="http://www.w3.org/1999/xhtml"><span class="nodeLabel"><p>dataRegistered</p></span></div></foreignObject></g></g><g transform="translate(360.1015625, 703)" id="flowchart-H-15779" class="node default"><rect height="54" width="126" y="-27" x="-63" ry="5" rx="5" style="" class="basic label-container"></rect><g transform="translate(-48, -12)" style="" class="label"><rect></rect><foreignObject height="24" width="96"><div style="display: table-cell; white-space: nowrap; line-height: 1.5; max-width: 200px; text-align: center;" xmlns="http://www.w3.org/1999/xhtml"><span class="nodeLabel"><p>初始化渲染端</p></span></div></foreignObject></g></g><g transform="translate(360.1015625, 819)" id="flowchart-I-15780" class="node default"><rect height="54" width="146.40625" y="-27" x="-73.203125" ry="5" rx="5" style="" class="basic label-container"></rect><g transform="translate(-58.203125, -12)" style="" class="label"><rect></rect><foreignObject height="24" width="116.40625"><div style="display: table-cell; white-space: nowrap; line-height: 1.5; max-width: 200px; text-align: center;" xmlns="http://www.w3.org/1999/xhtml"><span class="nodeLabel"><p>clientRegistered</p></span></div></foreignObject></g></g><g transform="translate(474.1015625, 935)" id="flowchart-J-15783" class="node default"><rect height="54" width="102.94792175292969" y="-27" x="-51.473960876464844" ry="5" rx="5" style="" class="basic label-container"></rect><g transform="translate(-36.473960876464844, -12)" style="" class="label"><rect></rect><foreignObject height="24" width="72.94792175292969"><div style="display: table-cell; white-space: nowrap; line-height: 1.5; max-width: 200px; text-align: center;" xmlns="http://www.w3.org/1999/xhtml"><span class="nodeLabel"><p>registered</p></span></div></foreignObject></g></g><g transform="translate(474.1015625, 1063)" id="flowchart-K-15785" class="node default"><rect height="78" width="230" y="-39" x="-115" ry="5" rx="5" style="" class="basic label-container"></rect><g transform="translate(-100, -24)" style="" class="label"><rect></rect><foreignObject height="48" width="200"><div style="display: table; white-space: break-spaces; line-height: 1.5; max-width: 200px; text-align: center; width: 200px;" xmlns="http://www.w3.org/1999/xhtml"><span class="nodeLabel"><p>执行数据端各个模块的初始化函数</p></span></div></foreignObject></g></g><g transform="translate(474.1015625, 1191)" id="flowchart-L-15787" class="node default"><rect height="78" width="230" y="-39" x="-115" ry="5" rx="5" style="" class="basic label-container"></rect><g transform="translate(-100, -24)" style="" class="label"><rect></rect><foreignObject height="48" width="200"><div style="display: table; white-space: break-spaces; line-height: 1.5; max-width: 200px; text-align: center; width: 200px;" xmlns="http://www.w3.org/1999/xhtml"><span class="nodeLabel"><p>执行渲染端各个模块的初始化函数</p></span></div></foreignObject></g></g><g transform="translate(123, 819)" id="flowchart-M-15789" class="node default"><rect height="54" width="142" y="-27" x="-71" ry="5" rx="5" style="" class="basic label-container"></rect><g transform="translate(-56, -12)" style="" class="label"><rect></rect><foreignObject height="24" width="112"><div style="display: table-cell; white-space: nowrap; line-height: 1.5; max-width: 200px; text-align: center;" xmlns="http://www.w3.org/1999/xhtml"><span class="nodeLabel"><p>加载数据端入口</p></span></div></foreignObject></g></g><g transform="translate(123, 935)" id="flowchart-N-15791" class="node default"><rect height="78" width="230" y="-39" x="-115" ry="5" rx="5" style="" class="basic label-container"></rect><g transform="translate(-100, -24)" style="" class="label"><rect></rect><foreignObject height="48" width="200"><div style="display: table; white-space: break-spaces; line-height: 1.5; max-width: 200px; text-align: center; width: 200px;" xmlns="http://www.w3.org/1999/xhtml"><span class="nodeLabel"><p>初始化数据端，写入 Mota 全局变量</p></span></div></foreignObject></g></g><g transform="translate(123, 1063)" id="flowchart-O-15793" class="node default"><rect height="78" width="230" y="-39" x="-115" ry="5" rx="5" style="" class="basic label-container"></rect><g transform="translate(-100, -24)" style="" class="label"><rect></rect><foreignObject height="48" width="200"><div style="display: table; white-space: break-spaces; line-height: 1.5; max-width: 200px; text-align: center; width: 200px;" xmlns="http://www.w3.org/1999/xhtml"><span class="nodeLabel"><p>dataRegistered 与 registered</p></span></div></foreignObject></g></g><g transform="translate(123, 1191)" id="flowchart-P-15795" class="node default"><rect height="78" width="230" y="-39" x="-115" ry="5" rx="5" style="" class="basic label-container"></rect><g transform="translate(-100, -24)" style="" class="label"><rect></rect><foreignObject height="48" width="200"><div style="display: table; white-space: break-spaces; line-height: 1.5; max-width: 200px; text-align: center; width: 200px;" xmlns="http://www.w3.org/1999/xhtml"><span class="nodeLabel"><p>执行数据端各个模块的初始化函数</p></span></div></foreignObject></g></g><g transform="translate(334.1015625, 1307)" id="flowchart-Q-15798" class="node default"><rect height="54" width="172.8541717529297" y="-27" x="-86.42708587646484" ry="5" rx="5" style="" class="basic label-container"></rect><g transform="translate(-71.42708587646484, -12)" style="" class="label"><rect></rect><foreignObject height="24" width="142.8541717529297"><div style="display: table-cell; white-space: nowrap; line-height: 1.5; max-width: 200px; text-align: center;" xmlns="http://www.w3.org/1999/xhtml"><span class="nodeLabel"><p>执行 main.js 初始化</p></span></div></foreignObject></g></g><g transform="translate(334.1015625, 1411)" id="flowchart-R-15800" class="node default"><rect height="54" width="126" y="-27" x="-63" ry="5" rx="5" style="" class="basic label-container"></rect><g transform="translate(-48, -12)" style="" class="label"><rect></rect><foreignObject height="24" width="96"><div style="display: table-cell; white-space: nowrap; line-height: 1.5; max-width: 200px; text-align: center;" xmlns="http://www.w3.org/1999/xhtml"><span class="nodeLabel"><p>加载全塔属性</p></span></div></foreignObject></g></g><g transform="translate(334.1015625, 1527)" id="flowchart-S-15802" class="node default"><rect height="78" width="230" y="-39" x="-115" ry="5" rx="5" style="" class="basic label-container"></rect><g transform="translate(-100, -24)" style="" class="label"><rect></rect><foreignObject height="48" width="200"><div style="display: table; white-space: break-spaces; line-height: 1.5; max-width: 200px; text-align: center; width: 200px;" xmlns="http://www.w3.org/1999/xhtml"><span class="nodeLabel"><p>加载 core.js 及其他 libs 中的脚本</p></span></div></foreignObject></g></g><g transform="translate(334.1015625, 1643)" id="flowchart-T-15804" class="node default"><rect height="54" width="85.5625" y="-27" x="-42.78125" ry="5" rx="5" style="" class="basic label-container"></rect><g transform="translate(-27.78125, -12)" style="" class="label"><rect></rect><foreignObject height="24" width="55.5625"><div style="display: table-cell; white-space: nowrap; line-height: 1.5; max-width: 200px; text-align: center;" xmlns="http://www.w3.org/1999/xhtml"><span class="nodeLabel"><p>coreInit</p></span></div></foreignObject></g></g><g transform="translate(334.1015625, 1747)" id="flowchart-U-15806" class="node default"><rect height="54" width="126" y="-27" x="-63" ry="5" rx="5" style="" class="basic label-container"></rect><g transform="translate(-48, -12)" style="" class="label"><rect></rect><foreignObject height="24" width="96"><div style="display: table-cell; white-space: nowrap; line-height: 1.5; max-width: 200px; text-align: center;" xmlns="http://www.w3.org/1999/xhtml"><span class="nodeLabel"><p>开始资源加载</p></span></div></foreignObject></g></g><g transform="translate(334.1015625, 1863)" id="flowchart-V-15808" class="node default"><rect height="78" width="230" y="-39" x="-115" ry="5" rx="5" style="" class="basic label-container"></rect><g transform="translate(-100, -24)" style="" class="label"><rect></rect><foreignObject height="48" width="200"><div style="display: table; white-space: break-spaces; line-height: 1.5; max-width: 200px; text-align: center; width: 200px;" xmlns="http://www.w3.org/1999/xhtml"><span class="nodeLabel"><p>自动元件加载完毕后触发 autotileLoaded</p></span></div></foreignObject></g></g><g transform="translate(334.1015625, 1979)" id="flowchart-W-15810" class="node default"><rect height="54" width="227.09375" y="-27" x="-113.546875" ry="5" rx="5" style="" class="basic label-container"></rect><g transform="translate(-98.546875, -12)" style="" class="label"><rect></rect><foreignObject height="24" width="197.09375"><div style="display: table-cell; white-space: nowrap; line-height: 1.5; max-width: 200px; text-align: center;" xmlns="http://www.w3.org/1999/xhtml"><span class="nodeLabel"><p>资源加载完毕后触发 loaded</p></span></div></foreignObject></g></g><g transform="translate(334.1015625, 2083)" id="flowchart-X-15812" class="node default"><rect height="54" width="126" y="-27" x="-63" ry="5" rx="5" style="" class="basic label-container"></rect><g transform="translate(-48, -12)" style="" class="label"><rect></rect><foreignObject height="24" width="96"><div style="display: table-cell; white-space: nowrap; line-height: 1.5; max-width: 200px; text-align: center;" xmlns="http://www.w3.org/1999/xhtml"><span class="nodeLabel"><p>进入标题界面</p></span></div></foreignObject></g></g></g></g></g></svg>